<?xml version="1.0" encoding="UTF-8"?><svg id="_レイヤー_2" xmlns="http://www.w3.org/2000/svg" xmlns:xlink="http://www.w3.org/1999/xlink" viewBox="0 0 178.067017 223.646134"><defs><style>.cls-1{fill:url(#_名称未設定グラデーション_44);stroke:#000;stroke-miterlimit:10;}</style><linearGradient id="_名称未設定グラデーション_44" x1="19.254651" y1="32.72654" x2="165.634806" y2="145.574677" gradientUnits="userSpaceOnUse"><stop offset="0" stop-color="#000" stop-opacity=".4"/><stop offset=".653058" stop-color="#000" stop-opacity=".214622"/></linearGradient></defs><g id="_レイヤー_1-2"><path class="cls-1" d="m114.545532,172.912842c8.09668,13.377258,7.044373,29.776855-2,40-12.81427,14.484436-38.85907,13.390991-50-2-7.480774-10.334595-7.193054-25.666748,1-38-21.015198-.123718-42.030334-.247498-63.045532-.371216V1.048218h60.002136c-11.547119,13.332886-11.307312,33.076843,0,45.537476,12.188904,13.43219,34.28595,15.1474,47.997864,1.955933,13.372925-12.865356,13.503052-34.842163,0-48.041626h69.067017v67.164917c-.692566,15.958923-1.385132,31.917786-2.077698,47.876709v58.034119c-20.314575-.220947-40.629211-.441956-60.943787-.662903Z"/></g></svg>