<?xml version="1.0" encoding="UTF-8"?><svg id="_レイヤー_2" xmlns="http://www.w3.org/2000/svg" xmlns:xlink="http://www.w3.org/1999/xlink" viewBox="0 0 227.013525 182.630604"><defs><style>.cls-1{fill:url(#_名称未設定グラデーション_17);stroke:#000;stroke-miterlimit:10;}</style><linearGradient id="_名称未設定グラデーション_17" x1=".5" y1="91.315302" x2="226.513525" y2="91.315302" gradientUnits="userSpaceOnUse"><stop offset="0" stop-color="#bff5ff" stop-opacity=".4"/><stop offset=".106162" stop-color="#afe6ff" stop-opacity=".353004"/><stop offset=".713533" stop-color="#5e95ff" stop-opacity=".099413"/><stop offset="1" stop-color="#3f76ff" stop-opacity="0"/></linearGradient></defs><g id="_レイヤー_1-2"><path class="cls-1" d="m179.972908,44.090626v53c11.169189-9.93956,27.873596-9.637245,38,0,9.927307,9.447754,11.558807,25.988327,3,36-9.33606,10.920868-28.84201,11.786011-41-1v50.039978h-49.000031c6.511444-9.273743,6.302155-21.264511,0-29.039978-8.470367-10.450577-26.288086-11.239334-34.999969-1-6.427185,7.554062-6.695038,19.696182,0,29h-52v-51.009796c-10.081421,9.833939-26.294296,9.692932-36,.009796-9.382034-9.360214-10.169388-25.073532-1-35,9.301727-10.06974,25.638153-10.709366,36-1v-52h49.162994c-7.675629-10.554134-7.3508-24.400131,0-33.05109,9.996094-11.764118,30.78772-11.335682,39.837006,1.05109,6.665161,9.123367,5.78067,23.119526-3,33,17,.333336,34,.666664,51,1Z"/></g></svg>